<?xml version="1.0" encoding="UTF-8"?>
<svg width="247px" height="117px" viewBox="0 0 247 117" version="1.1" xmlns="http://www.w3.org/2000/svg" xmlns:xlink="http://www.w3.org/1999/xlink">
    <!-- Generator: Sketch 46.2 (44496) - http://www.bohemiancoding.com/sketch -->
    <title>TC logo</title>
    <desc>Created with Sketch.</desc>
    <defs>
        <polygon id="path-1" points="0 108 246.851347 108 246.851347 0.000453781513 0 0.000453781513"></polygon>
    </defs>
    <g id="Symbols" stroke="none" stroke-width="1" fill="none" fill-rule="evenodd">
        <g id="TC-logo">
            <g>
                <g id="touching-cloth" transform="translate(0.000000, 9.000000)">
                    <path d="M119.199163,104.396612 C115.282967,104.396612 112.081938,103.945099 109.412525,103.015755 C106.150312,101.880393 103.496762,99.9990151 101.523934,97.4242588 C99.7944809,95.1694185 98.5848607,92.5374857 97.928158,89.6019731 C97.3865708,87.1837714 97.1232552,84.4029983 97.1232552,81.101284 C97.1232552,77.8059227 97.3856644,75.0224269 97.9249855,72.5915193 C98.5803286,69.6364941 99.7935745,66.988679 101.530732,64.7220403 C102.115828,63.9619563 102.769358,63.2599563 103.487244,62.6183092 C102.594419,62.0469983 101.769574,61.3985445 101.015885,60.6752168 C99.1128516,62.6959059 96.6881727,64.1130655 93.7953268,64.8926622 C91.4667286,65.520242 88.7107525,65.8251832 85.3687745,65.8251832 C82.0199983,65.8251832 79.2653818,65.5184269 76.9485672,64.8881244 C74.0661451,64.1039899 71.647358,62.6800235 69.7461378,60.6507126 C68.0058075,62.3251664 65.8865928,63.5993849 63.4197653,64.4511328 C60.7399286,65.3754857 57.6771286,65.8251832 54.0568791,65.8251832 C50.4348167,65.8251832 47.3720167,65.3754857 44.6935396,64.4511328 C42.9015433,63.8326286 41.2885653,62.9854185 39.8691084,61.9190319 C38.4623415,63.8634857 36.1767983,65.1100235 33.6283928,65.1100235 L21.8449066,65.1100235 C17.5965066,65.1100235 14.1403194,61.6494857 14.1403194,57.3957378 L14.1403194,29.5335529 L9.97077817,29.5335529 C5.72237817,29.5335529 2.26619101,26.0730151 2.26619101,21.8192672 L2.26619101,12.0175866 C2.26619101,7.76383866 5.72237817,4.30330084 9.97077817,4.30330084 L45.5025213,4.30330084 C49.7509213,4.30330084 53.2071084,7.76383866 53.2071084,12.0175866 L53.2071084,19.1977714 C53.4908185,19.1905109 53.7745286,19.1873345 54.0568791,19.1873345 C59.3150332,19.1873345 63.6644993,20.2328471 67.0286846,22.2998218 C68.4558461,20.7946286 70.4581323,19.9020403 72.6154167,19.9020403 L82.1328479,19.9020403 C83.2758461,19.9020403 84.3807745,20.1484437 85.3923415,20.6235529 C86.4043617,20.1484437 87.5092901,19.9020403 88.6522883,19.9020403 L98.1697194,19.9020403 C100.310688,19.9020403 102.304817,20.7864605 103.731978,22.2771328 C107.099336,20.2255866 111.442004,19.1873345 116.68067,19.1873345 C118.272347,19.1873345 120.02854,19.3307294 122.049861,19.6252336 C123.841857,19.8866118 125.29893,20.2133345 126.536197,20.635805 C127.556374,20.1534353 128.670367,19.9020403 129.814725,19.9020403 L139.332156,19.9020403 C140.584378,19.9020403 141.807595,20.2074353 142.901193,20.7792 C143.994791,20.2074353 145.218008,19.9020403 146.47023,19.9020403 L155.987661,19.9020403 C157.158305,19.9020403 158.2868,20.1616034 159.318308,20.6612168 C160.350723,20.1616034 161.479672,19.9020403 162.649863,19.9020403 L172.167294,19.9020403 C173.337485,19.9020403 174.46598,20.1616034 175.497941,20.660763 C176.529903,20.1616034 177.658398,19.9020403 178.828589,19.9020403 L187.775428,19.9020403 C189.183554,19.9020403 190.55905,20.2936538 191.749182,21.009721 C192.939314,20.2936538 194.314809,19.9020403 195.722483,19.9020403 L205.239914,19.9020403 C207.568512,19.9020403 209.725797,20.9711496 211.161116,22.6937042 C214.755079,20.3648975 219.58223,19.1873345 225.559176,19.1873345 C227.134991,19.1873345 229.035758,19.3325445 231.368888,19.6315866 C233.930437,19.9605782 235.799026,20.3462924 237.249754,20.8454521 C240.867738,22.0919899 243.040431,25.8660908 242.303963,29.6252168 L241.375334,34.3654185 C242.946617,35.8111664 243.875699,37.872242 243.875699,40.0522084 L243.875699,55.9663261 C243.875699,57.7093008 243.288338,59.3583429 242.265441,60.6824773 C243.709824,62.1014521 244.584974,64.0713176 244.584974,66.1877546 L244.584974,95.9671664 C244.584974,100.220914 241.128787,103.681452 236.880387,103.681452 L227.362956,103.681452 C226.110281,103.681452 224.887064,103.376511 223.793919,102.804292 C222.700774,103.376511 221.477558,103.681452 220.224883,103.681452 L210.707452,103.681452 C208.720574,103.681452 206.865129,102.909116 205.472864,101.616746 C204.081053,102.909116 202.225154,103.681452 200.23873,103.681452 L190.721299,103.681452 C186.472446,103.681452 183.016712,100.220914 183.016712,95.9671664 L183.016712,81.4838218 C179.14493,81.0799563 176.116121,77.7932168 176.116121,73.811284 L176.116121,66.1877546 C176.116121,65.671805 176.165974,65.1635697 176.264774,64.6684941 C174.888373,64.1797714 173.669235,63.3048807 172.76236,62.1450151 C172.564307,62.1604437 172.366253,62.168158 172.167294,62.168158 L165.462943,62.168158 L149.025433,80.629805 L150.035641,80.629805 C154.284041,80.629805 157.740228,84.0903429 157.740228,88.3440908 L157.740228,95.9671664 C157.740228,100.220914 154.284041,103.681452 150.035641,103.681452 L131.000778,103.681452 C130.019576,103.681452 129.046986,103.491318 128.138297,103.12557 C125.52327,103.98004 122.587369,104.396612 119.199163,104.396612 Z" id="Fill-1" fill="#00AEEF"></path>
                    <path d="M45.5025666,2.03457479 L9.97082349,2.03457479 C4.47292073,2.03457479 0.000181284404,6.51294454 0.000181284404,12.0177681 L0.000181284404,21.8194487 C0.000181284404,27.3242723 4.47292073,31.802642 9.97082349,31.802642 L11.8743097,31.802642 L11.8743097,57.3959193 C11.8743097,62.9007429 16.3470492,67.3791126 21.8449519,67.3791126 L33.6284382,67.3791126 C36.1428528,67.3791126 38.4587611,66.4416 40.2249244,64.8810454 C41.3792528,65.5639866 42.6242235,66.1366588 43.9557574,66.5958857 C46.8744363,67.6041882 50.1787978,68.0938185 54.0569244,68.0938185 C57.9332382,68.0938185 61.2371464,67.6041882 64.1580914,66.5963395 C66.2129501,65.8866252 68.0570657,64.9146252 69.6759354,63.6894151 C71.5717171,65.249516 73.807407,66.3848773 76.3544528,67.0773479 C78.8679611,67.7611966 81.8165519,68.0938185 85.3688198,68.0938185 C88.9120235,68.0938185 91.8610675,67.7634655 94.38364,67.0841546 C95.7559629,66.7143227 97.0371905,66.2169782 98.2236969,65.5957513 C97.0743538,67.5746924 96.2336473,69.7519361 95.7129079,72.1002555 C95.1373299,74.6936168 94.8572455,77.6377513 94.8572455,81.1014655 C94.8572455,84.5719866 95.1386895,87.5156672 95.71744,90.0999529 C96.4457501,93.3576504 97.7949593,96.2877176 99.7269978,98.8066588 C101.973112,101.738087 104.981979,103.875852 108.668398,105.158692 C111.579825,106.172894 115.024682,106.665701 119.199209,106.665701 C122.514901,106.665701 125.44355,106.287701 128.093928,105.514003 C129.033434,105.801701 130.013277,105.950541 131.000823,105.950541 L150.035686,105.950541 C155.533589,105.950541 160.006328,101.471718 160.006328,95.9673479 L160.006328,88.3442723 C160.006328,84.0664739 157.30519,80.4080874 153.520879,78.9900202 L164.574695,66.5754655 L166.478634,64.4372471 L171.767607,64.4372471 C172.389866,65.062558 173.091436,65.6016504 173.851018,66.0409109 C173.850565,66.0899193 173.850112,66.1389277 173.850112,66.1879361 L173.850112,73.8114655 C173.850112,78.2440034 176.750209,82.0112975 180.750249,83.3104739 L180.750249,95.9673479 C180.750249,101.471718 185.223442,105.950541 190.720891,105.950541 L200.238323,105.950541 C202.132291,105.950541 203.935165,105.407365 205.47291,104.45397 C207.011108,105.407818 208.813075,105.950541 210.707497,105.950541 L220.224928,105.950541 C221.455396,105.950541 222.66411,105.723197 223.793965,105.288928 C224.92382,105.723197 226.132534,105.950541 227.363001,105.950541 L236.880433,105.950541 C242.378335,105.950541 246.851075,101.471718 246.851075,95.9673479 L246.851075,66.1879361 C246.851075,64.1023563 246.194825,62.1270454 245.056812,60.4925244 C245.75657,59.1171126 246.1418,57.5724403 246.1418,55.9665076 L246.1418,40.0523899 C246.1418,37.6859193 245.295655,35.4279025 243.823625,33.6577008 L244.527915,30.0614824 C245.481018,25.1969445 242.66839,20.3128941 237.986721,18.7001546 C236.387339,18.1492639 234.376442,17.7299697 231.658535,17.3810118 C229.227058,17.0697176 227.232477,16.9186084 225.559222,16.9186084 C219.953455,16.9186084 215.249124,17.9083059 211.506961,19.8681882 C209.77071,18.4610118 207.57173,17.6333143 205.239959,17.6333143 L195.722528,17.6333143 C194.34522,17.6333143 192.992385,17.9223731 191.749227,18.4637345 C190.505616,17.9223731 189.152328,17.6333143 187.77502,17.6333143 L178.828634,17.6333143 C177.676572,17.6333143 176.556234,17.827079 175.497987,18.2037176 C174.440192,17.827079 173.319401,17.6333143 172.167339,17.6333143 L162.649908,17.6333143 C161.497846,17.6333143 160.376601,17.827079 159.318354,18.2041714 C158.260559,17.827079 157.139768,17.6333143 155.987706,17.6333143 L146.470275,17.6333143 C145.239807,17.6333143 144.031093,17.8606588 142.901238,18.2944739 C141.771383,17.8606588 140.562669,17.6333143 139.332201,17.6333143 L129.81477,17.6333143 C128.649112,17.6333143 127.508379,17.8343395 126.43155,18.2241378 C125.256827,17.8819866 123.927106,17.6060874 122.377124,17.3801042 C120.244767,17.0692639 118.382069,16.9186084 116.680715,16.9186084 C111.73437,16.9186084 107.494581,17.7944067 104.018,19.5296672 C102.351996,18.3212471 100.317985,17.6333143 98.1697648,17.6333143 L88.6523336,17.6333143 C87.5270106,17.6333143 86.4297868,17.8180034 85.39284,18.1769445 C84.35544,17.8180034 83.2582161,17.6333143 82.1328932,17.6333143 L72.615462,17.6333143 C70.4522859,17.6333143 68.4092106,18.3266924 66.7400345,19.5450958 C63.6001886,17.9686588 59.8303794,17.0964908 55.4732088,16.9431126 L55.4732088,12.0177681 C55.4732088,6.51294454 51.0004694,2.03457479 45.5025666,2.03457479 M119.458899,96.6811462 C119.375961,96.6820538 119.292117,96.6825076 119.20782,96.6825076 C119.292117,96.6825076 119.375961,96.6820538 119.458899,96.6811462 C119.71179,96.6784235 119.96015,96.6725244 120.206244,96.6648101 C119.96015,96.6725244 119.71179,96.6784235 119.458899,96.6811462 M120.829862,96.6357681 C120.747378,96.6398521 120.663987,96.6439361 120.581049,96.6480202 C120.663987,96.6443899 120.747378,96.6398521 120.829862,96.6357681 C120.939539,96.6298689 121.047857,96.623516 121.155721,96.6162555 C121.047857,96.623516 120.939539,96.6298689 120.829862,96.6357681 M121.832365,96.5608941 C121.76393,96.5677008 121.694589,96.5736 121.624794,96.5799529 C121.694589,96.5736 121.76393,96.5677008 121.832365,96.5608941 C121.901706,96.5540874 121.970141,96.5472807 122.038576,96.5400202 C121.970141,96.5472807 121.901706,96.5540874 121.832365,96.5608941 M122.655396,96.4692303 C122.629563,96.4728605 122.60373,96.4764908 122.577444,96.4792134 C122.60373,96.4764908 122.629563,96.4728605 122.655396,96.4692303 C122.70389,96.4619697 122.752383,96.455163 122.800423,96.4483563 C122.75193,96.455163 122.70389,96.4619697 122.655396,96.4692303 M120.20579,88.5425748 C120.134183,88.546205 120.063029,88.5507429 119.991875,88.5548269 C119.920721,88.5584571 119.84866,88.5620874 119.776146,88.5648101 C119.84866,88.5620874 119.920721,88.5584571 119.991875,88.5548269 C120.063029,88.5507429 120.134183,88.546205 120.20579,88.5425748 M121.259506,88.4654319 C121.167504,88.4740538 121.075502,88.4831294 120.983047,88.4917513 C120.888326,88.4999193 120.792699,88.5085412 120.696618,88.5153479 C120.792699,88.5085412 120.888326,88.4999193 120.983047,88.4917513 C121.075502,88.4831294 121.167504,88.4745076 121.259506,88.4654319 M122.223939,88.3524403 C122.105651,88.3692303 121.987363,88.3855664 121.868622,88.4005412 C121.773447,88.4127933 121.678273,88.4241378 121.582192,88.4345748 C121.678273,88.4241378 121.773447,88.4127933 121.868622,88.4005412 C121.987363,88.3855664 122.105651,88.3692303 122.223939,88.3524403 M123.126282,88.2072303 C123.013433,88.2281042 122.900583,88.2480706 122.786827,88.2675832 C122.669899,88.2875496 122.552517,88.3061546 122.434229,88.3238521 C122.552517,88.3061546 122.669899,88.2875496 122.786827,88.2675832 C122.900583,88.2480706 123.013433,88.2281042 123.126282,88.2072303 M123.980585,88.0293479 C123.863657,88.0570286 123.745822,88.0828941 123.627534,88.1083059 C123.504713,88.1346252 123.380534,88.1591294 123.255901,88.1831798 C123.380534,88.1595832 123.504713,88.1346252 123.627534,88.1083059 C123.745822,88.0828941 123.863657,88.0570286 123.980585,88.0293479 M124.791833,87.8219697 C124.701644,87.8473815 124.611908,87.8723395 124.521266,87.8959361 C124.364908,87.9372303 124.208097,87.9762555 124.04902,88.0139193 C124.208097,87.9767092 124.364908,87.9372303 124.521266,87.8959361 C124.611908,87.8723395 124.702097,87.8473815 124.791833,87.8219697 M124.8154,87.8156168 C125.068291,87.7439193 125.317104,87.667684 125.561838,87.5869109 C125.317104,87.667684 125.068291,87.7439193 124.8154,87.8156168 M125.290365,74.0020538 L125.562291,72.6143899 L125.290365,74.0020538 M125.562291,66.3204403 C125.561838,66.3204403 125.561385,66.3199866 125.560932,66.3199866 C125.561385,66.3204403 125.561838,66.3204403 125.562291,66.3204403 M125.05968,66.1951966 C125.030222,66.1879361 125.00031,66.1815832 124.970398,66.1747765 C125.00031,66.1815832 125.030222,66.1879361 125.05968,66.1951966 M124.481383,66.0708605 C124.490901,66.0726756 124.499965,66.0744908 124.509482,66.0763059 C124.499965,66.0744908 124.490901,66.0726756 124.481383,66.0708605 C124.44422,66.0636 124.407057,66.0558857 124.368987,66.0486252 C124.407057,66.0558857 124.44422,66.0636 124.481383,66.0708605 M123.819242,65.9483395 C123.845981,65.9533311 123.872268,65.9578689 123.89946,65.9624067 C123.872268,65.9578689 123.845981,65.9533311 123.819242,65.9483395 C123.792956,65.9438017 123.766216,65.9392639 123.73857,65.9342723 C123.766216,65.9392639 123.792956,65.9438017 123.819242,65.9483395 M209.393185,60.9090958 C209.813765,60.8024571 210.253379,60.742558 210.707497,60.742558 L212.626846,60.742558 C211.824662,60.246121 211.085022,59.6879697 210.416989,59.0608437 C210.197634,59.7460538 209.846396,60.3722723 209.393185,60.9090958 M117.078634,58.1106252 L117.061412,58.1106252 L117.078634,58.1106252 C117.441657,58.1106252 117.796521,58.1042723 118.144587,58.0920202 C117.796521,58.1038185 117.441657,58.1106252 117.078634,58.1106252 M118.882414,58.0525412 C118.830748,58.0552639 118.779989,58.0575328 118.729229,58.0607092 C118.779989,58.0575328 118.831201,58.0552639 118.882414,58.0525412 C118.980308,58.0480034 119.078655,58.0430118 119.174282,58.036205 C119.078655,58.0430118 118.980308,58.0480034 118.882414,58.0525412 M120.039009,57.9554319 C120.002299,57.9590622 119.965589,57.9622387 119.929785,57.9658689 C119.965589,57.9622387 120.002299,57.9590622 120.039009,57.9554319 C120.077532,57.9522555 120.115601,57.9486252 120.152765,57.9445412 C120.115601,57.9486252 120.077532,57.9522555 120.039009,57.9554319 M120.998457,57.8292807 C120.994831,57.8301882 120.990752,57.830642 120.987126,57.8310958 C120.990752,57.830642 120.994831,57.8301882 120.998457,57.8292807 C121.027009,57.8251966 121.056468,57.8215664 121.084113,57.8174824 C121.056468,57.8215664 121.027009,57.8251966 120.998457,57.8292807 M121.949293,57.6586588 C121.956091,57.6572975 121.96289,57.6563899 121.969234,57.6550286 C121.96289,57.6563899 121.956091,57.6572975 121.949293,57.6586588 M105.485044,54.1382218 C105.36177,53.9766756 105.242576,53.8124067 105.127913,53.6440538 C105.242576,53.8124067 105.36177,53.9766756 105.485044,54.1382218 M65.4125794,53.9231294 C65.3627262,53.9916504 65.3119666,54.0592639 65.2607538,54.1268773 C65.3119666,54.0592639 65.3627262,53.9916504 65.4125794,53.9231294 C65.4810143,53.8301042 65.5476363,53.7357176 65.6124455,53.6399697 C65.5476363,53.7357176 65.4810143,53.8301042 65.4125794,53.9231294 M104.898135,53.2855664 C104.912185,53.3073479 104.925781,53.3286756 104.939378,53.3500034 C104.925781,53.3286756 104.912185,53.3073479 104.898135,53.2855664 C104.861425,53.2292975 104.824715,53.1725748 104.789365,53.1144908 C104.824715,53.1725748 104.861425,53.2292975 104.898135,53.2855664 M65.8852785,53.2161378 C65.8612583,53.2528941 65.8372382,53.2891966 65.8141244,53.3264067 C65.8376914,53.2891966 65.8612583,53.2528941 65.8852785,53.2161378 C65.9092987,53.1793815 65.9328657,53.1426252 65.9555262,53.1049613 C65.9328657,53.1426252 65.9092987,53.1793815 65.8852785,53.2161378 M104.533301,52.661163 C104.539646,52.6720538 104.54599,52.6833983 104.552335,52.6947429 C104.54599,52.6833983 104.539646,52.6720538 104.533301,52.661163 C104.515625,52.6303059 104.49795,52.5999025 104.481181,52.5685916 C104.49795,52.5999025 104.515625,52.6303059 104.533301,52.661163 M66.2455813,52.5935496 C66.2328914,52.6157849 66.2197483,52.6380202 66.2075116,52.6602555 C66.2197483,52.6380202 66.2328914,52.6157849 66.2455813,52.5935496 C66.2532859,52.5799361 66.2614437,52.5654151 66.2691483,52.5513479 C66.2614437,52.5654151 66.2532859,52.5799361 66.2455813,52.5935496 M104.230556,52.0626252 C104.221038,52.0426588 104.211068,52.0231462 104.20155,52.0036336 C104.211068,52.0231462 104.221038,52.0426588 104.230556,52.0626252 M66.5342767,52.0172471 C66.5406217,52.0040874 66.547873,51.9909277 66.554218,51.9773143 C66.547873,51.9909277 66.5406217,52.0040874 66.5342767,52.0172471 M103.95591,51.4332303 C103.954097,51.4282387 103.951831,51.4237008 103.949565,51.419163 C103.951831,51.4237008 103.954097,51.4282387 103.95591,51.4332303 M97.6463061,50.8682723 C97.6834694,50.6917513 97.7183666,50.5070622 97.751451,50.3164739 C97.7179134,50.5057008 97.6834694,50.6917513 97.6463061,50.8682723 M73.1389207,50.8682723 C73.1003978,50.6853983 73.0645941,50.4939025 73.0301501,50.2983227 C73.0641409,50.4952639 73.1003978,50.6853983 73.1389207,50.8682723 M116.680715,50.0106252 L116.680715,50.0106252 C116.363468,50.0106252 116.047126,50.0029109 115.731691,49.9870286 C116.047126,50.0029109 116.363468,50.0106252 116.680715,50.0106252 M72.9358822,49.7025076 C72.9358822,49.7034151 72.9363354,49.7038689 72.9363354,49.7047765 C72.9363354,49.7052303 72.9363354,49.705684 72.9363354,49.7061378 C72.9363354,49.705684 72.9363354,49.7052303 72.9363354,49.7047765 C72.9363354,49.7043227 72.9358822,49.7034151 72.9358822,49.7025076 L72.9358822,49.7025076 L72.9358822,49.7025076 M67.4216639,49.4624571 L67.4216639,49.4629109 L67.4216639,49.4624571 C67.4221171,49.4624571 67.4221171,49.4620034 67.4221171,49.4615496 C67.4221171,49.4615496 67.4221171,49.4610958 67.4225703,49.460642 C67.4221171,49.4615496 67.4221171,49.4620034 67.4216639,49.4624571 M97.8411868,49.7524235 L97.8411868,49.7524235 L97.8411868,49.7528773 L97.8411868,49.7537849 C97.8407336,49.7542387 97.8407336,49.7542387 97.8407336,49.7546924 C97.8407336,49.7546924 97.8407336,49.7542387 97.8411868,49.7537849 L97.8411868,49.7528773 L97.8411868,49.7524235 C97.8801629,49.5513983 97.9150602,49.2759529 97.946785,48.9419697 C97.9150602,49.2228605 97.8797097,49.4919529 97.8411868,49.7524235 M124.376238,54.5842891 L123.866376,48.8670958 L124.376238,54.5842891 M211.085475,49.3113479 C211.085928,49.3140706 211.086834,49.3172471 211.087288,49.3199697 C211.087741,49.3222387 211.088194,49.3240538 211.088647,49.3263227 L211.092726,49.3435664 L211.088647,49.3263227 C211.088194,49.3240538 211.087741,49.3222387 211.087288,49.3199697 C211.086834,49.3172471 211.085928,49.3140706 211.085475,49.3113479 C211.04106,49.1121378 211.000271,48.9065748 210.961295,48.6978353 C211.000271,48.9070286 211.04106,49.1121378 211.085475,49.3113479 M210.866574,48.1478521 C210.873825,48.1927765 210.88153,48.2377008 210.888781,48.2826252 C210.88153,48.2377008 210.873825,48.1927765 210.866574,48.1478521 C210.860682,48.1156336 210.855244,48.0834151 210.850258,48.0507429 C210.855244,48.0834151 210.860682,48.1156336 210.866574,48.1478521 M210.765961,47.4617345 C210.766414,47.4671798 210.767321,47.4717176 210.767774,47.477163 C210.767321,47.4717176 210.766414,47.4671798 210.765961,47.4617345 C210.762789,47.4408605 210.760069,47.4195328 210.756897,47.3977513 C210.760069,47.4195328 210.762789,47.4408605 210.765961,47.4617345 M188.927989,46.6785076 C188.723137,46.285079 188.592159,45.5703731 188.536414,44.5312134 L188.346066,44.5312134 L188.346066,45.832205 L188.927989,46.6785076 M224.702653,40.0523899 L236.171157,40.0523899 L224.702653,40.0523899 M195.532179,40.4812134 L195.722528,40.4812134 L195.722528,39.4792639 L195.334126,38.8993311 C195.429301,39.2986588 195.496376,39.8227765 195.532179,40.4812134 M210.769587,37.6178521 C210.767321,37.6323731 210.765055,37.6468941 210.763242,37.6614151 C210.765055,37.6468941 210.767321,37.6323731 210.769587,37.6178521 M210.895126,36.8024067 C210.889688,36.835079 210.883796,36.868205 210.877904,36.9008773 C210.872466,36.9317345 210.867027,36.9625916 210.862042,36.9939025 C210.867027,36.9625916 210.872466,36.9317345 210.877904,36.9008773 C210.883796,36.868205 210.889688,36.8355328 210.895126,36.8024067 M211.116293,35.6924571 C211.114934,35.6983563 211.113574,35.7038017 211.112668,35.7097008 C211.112214,35.7119697 211.111308,35.7146924 211.110855,35.7169613 C211.110401,35.7192303 211.109495,35.7219529 211.109042,35.7246756 C211.062814,35.9243395 211.019306,36.1299025 210.978517,36.3400034 C211.019306,36.1303563 211.062814,35.9243395 211.109042,35.7246756 C211.109495,35.7219529 211.110401,35.7192303 211.110855,35.7169613 C211.111308,35.7146924 211.112214,35.7119697 211.112668,35.7097008 C211.113574,35.7038017 211.114934,35.6983563 211.116293,35.6924571 M51.6340583,35.3040202 C51.8235006,35.2472975 52.0342437,35.2001042 52.2662877,35.1624403 C52.4983317,35.1247765 52.7516767,35.096642 53.0263226,35.0775832 C53.3009684,35.0589782 53.596462,35.0494487 53.9141629,35.0494487 C53.596462,35.0494487 53.3009684,35.0589782 53.0263226,35.0775832 C52.7516767,35.096642 52.4983317,35.1247765 52.2662877,35.1624403 C52.0342437,35.2001042 51.8235006,35.2472975 51.6340583,35.3040202 M67.4678914,49.2709613 C68.5071042,45.1701378 68.4898822,38.5172471 67.1769299,34.9223899 C67.7874051,37.0174992 68.0951354,39.5514151 68.0951354,42.530037 C68.0951354,45.1960034 67.8852987,47.4417681 67.4678914,49.2709613 M114.194853,35.1284067 C114.394266,35.0589782 114.62631,34.9995328 114.890985,34.9500706 C115.15566,34.9001546 115.452967,34.8602218 115.783357,34.8307261 C116.113295,34.8007765 116.476317,34.7812639 116.871517,34.7712807 C116.476317,34.7812639 116.113295,34.8007765 115.783357,34.8307261 C115.452967,34.8602218 115.15566,34.9001546 114.890985,34.9500706 C114.62631,34.9995328 114.394266,35.0589782 114.194853,35.1284067 M104.394618,32.6176336 C104.39915,32.6090118 104.403229,32.6003899 104.407761,32.5917681 C104.403229,32.6003899 104.39915,32.6090118 104.394618,32.6176336 M104.967477,31.6197681 C104.952521,31.6438185 104.937112,31.6674151 104.921249,31.6914655 C104.906293,31.715516 104.890884,31.7395664 104.875928,31.7640706 C104.890884,31.7395664 104.906293,31.715516 104.921249,31.6914655 C104.937112,31.6674151 104.952521,31.6438185 104.967477,31.6197681 M66.3593372,32.7433311 C65.8349721,31.4296336 65.7148712,31.4595832 65.0495574,30.6418689 C65.5476363,31.2540202 65.9831721,31.9551126 66.3593372,32.7433311 M123.152568,35.4306252 L124.376238,29.1825076 L123.152568,35.4306252 M124.073946,27.9468605 C124.066695,27.9445916 124.059897,27.9423227 124.053099,27.9396 C124.059897,27.9423227 124.066695,27.9445916 124.073946,27.9468605 M123.710471,27.8306924 C123.719082,27.8334151 123.7286,27.8361378 123.737664,27.8388605 C123.7286,27.8361378 123.719082,27.8334151 123.710471,27.8306924 C123.70322,27.8284235 123.696422,27.8266084 123.689623,27.8243395 C123.696422,27.8266084 123.70322,27.8284235 123.710471,27.8306924 M123.319803,27.7217849 C123.335666,27.7258689 123.351075,27.7299529 123.366484,27.7335832 C123.351075,27.7299529 123.335666,27.7258689 123.319803,27.7217849 C123.307113,27.7186084 123.294877,27.7149782 123.282187,27.7118017 C123.294877,27.7149782 123.307113,27.7186084 123.319803,27.7217849 M72.615462,27.6165076 C72.615462,27.630121 72.6141024,28.3343899 72.615462,29.4860874 L72.615462,27.6165076 L72.615462,27.6165076 L72.615462,27.6165076 M98.1697648,43.5546756 C98.2921317,36.9049613 98.1697648,27.6165076 98.1697648,27.6165076 L98.1697648,43.5546756 M122.931855,27.6255832 C122.940919,27.6278521 122.949983,27.6296672 122.959047,27.6319361 C122.949983,27.6296672 122.940919,27.6278521 122.931855,27.6255832 C122.897864,27.6178689 122.862967,27.6101546 122.828976,27.6024403 C122.862967,27.6101546 122.897864,27.6178689 122.931855,27.6255832 M122.41746,27.5139529 C122.450545,27.5207597 122.482723,27.5271126 122.513994,27.5334655 C122.482723,27.5271126 122.450545,27.5207597 122.41746,27.5139529 C122.384829,27.5076 122.351745,27.5012471 122.319567,27.4944403 C122.351745,27.5012471 122.384829,27.5076 122.41746,27.5139529 M121.812877,27.4000538 C121.887203,27.4127597 121.960623,27.4254655 122.031324,27.4386252 C121.960623,27.4254655 121.887203,27.4127597 121.812877,27.4000538 C121.78795,27.3959697 121.763023,27.3914319 121.737644,27.3868941 C121.763023,27.3914319 121.78795,27.3959697 121.812877,27.4000538 M121.506506,27.3469613 C121.322956,27.3170118 121.134873,27.287516 120.939992,27.2589277 C121.134873,27.287516 121.322956,27.3170118 121.506506,27.3469613 M117.594389,26.9226756 L117.624754,26.924037 L117.594389,26.9226756 C117.277141,26.9086084 116.973036,26.9018017 116.680715,26.9018017 C116.972583,26.9018017 117.277141,26.9086084 117.594389,26.9226756 M45.5025666,6.57238992 C48.505996,6.57238992 50.9410987,9.01055798 50.9410987,12.0177681 L50.9410987,21.6020874 C51.9358969,21.5086084 52.9710308,21.4564235 54.0569244,21.4564235 C59.9160363,21.4564235 64.4544914,22.8209445 67.5997758,25.5086924 C68.422807,23.5483563 70.358018,22.1711294 72.615462,22.1711294 L82.1328932,22.1711294 C83.3556565,22.1711294 84.4841519,22.5754487 85.39284,23.2574824 C86.3010749,22.5754487 87.4295703,22.1711294 88.6523336,22.1711294 L98.1697648,22.1711294 C100.410893,22.1711294 102.333868,23.5292975 103.166416,25.4673983 C106.326657,22.8037008 110.856954,21.4564235 116.680715,21.4564235 C118.161356,21.4564235 119.81059,21.5916504 121.723594,21.8702723 C123.867735,22.1833815 125.4576,22.5867933 126.725231,23.137684 C127.603101,22.5296168 128.666787,22.1711294 129.81477,22.1711294 L139.332201,22.1711294 C140.697726,22.1711294 141.945869,22.6752807 142.901238,23.507516 C143.856154,22.6752807 145.104297,22.1711294 146.470275,22.1711294 L155.987706,22.1711294 C157.244007,22.1711294 158.397882,22.6017681 159.318807,23.3182891 C160.239732,22.6017681 161.393154,22.1711294 162.649908,22.1711294 L172.167339,22.1711294 C173.42364,22.1711294 174.577062,22.6017681 175.497987,23.3182891 C176.418912,22.6017681 177.572334,22.1711294 178.828634,22.1711294 L187.77502,22.1711294 C189.293277,22.1711294 190.728596,22.8050622 191.748774,23.8986756 C192.741306,22.8354655 194.154418,22.1711294 195.722528,22.1711294 L205.239959,22.1711294 C207.719023,22.1711294 209.80742,23.8342387 210.461857,26.1058689 C213.74673,23.0192471 218.813176,21.4564235 225.559222,21.4564235 C227.038049,21.4564235 228.844095,21.5952807 231.081598,21.8820706 C233.486335,22.190642 235.21171,22.5432303 236.512425,22.9911126 C239.079866,23.8755328 240.603108,26.5206252 240.080556,29.1884067 L238.877734,35.3285244 C240.5102,36.2678521 241.60969,38.0317008 241.60969,40.0523899 L241.60969,55.9665076 C241.60969,58.1364908 240.32257,60.0863899 238.353368,60.9503899 C240.640271,61.5938521 242.318965,63.6921378 242.318965,66.1879361 L242.318965,95.9673479 C242.318965,98.974558 239.883862,101.412726 236.880433,101.412726 L227.363001,101.412726 C225.997023,101.412726 224.74888,100.908575 223.793965,100.075886 C222.839049,100.908575 221.590906,101.412726 220.224928,101.412726 L210.707497,101.412726 C208.210304,101.412726 206.111484,99.7255664 205.47291,97.4285244 C204.834335,99.7255664 202.735515,101.412726 200.238323,101.412726 L190.720891,101.412726 C187.717462,101.412726 185.282359,98.974558 185.282359,95.9673479 L185.282359,79.2568437 L183.820754,79.2568437 C180.817324,79.2568437 178.382222,76.8186756 178.382222,73.8114655 L178.382222,66.1879361 C178.382222,64.9246084 178.815491,63.7651966 179.53655,62.8412975 L178.828634,62.8412975 C176.618324,62.8412975 174.720277,61.5189782 173.8696,59.6235328 C173.333451,59.8005076 172.762405,59.8994319 172.167339,59.8994319 L162.649908,59.8994319 C162.054389,59.8994319 161.483343,59.8000538 160.946741,59.623079 C160.140932,61.4191462 158.393803,62.6988101 156.3326,62.8285916 L161.191475,63.5560034 L145.956787,80.6662891 L145.956787,82.8988941 L150.035686,82.8988941 C153.039115,82.8988941 155.474218,85.3370622 155.474218,88.3442723 L155.474218,95.9673479 C155.474218,98.974558 153.039115,101.412726 150.035686,101.412726 L131.000823,101.412726 C130.006025,101.412726 129.076036,101.140457 128.2734,100.673516 C125.700974,101.646877 122.728816,102.127886 119.199209,102.127886 C115.539983,102.127886 112.581875,101.71676 110.15629,100.872726 C107.320095,99.8852975 105.020502,98.2603059 103.321868,96.0431294 C101.794093,94.0514824 100.723156,91.7167765 100.139873,89.1066252 C99.6345428,86.8526924 99.3893556,84.2339193 99.3893556,81.1014655 C99.3893556,77.9730958 99.6340895,75.3502387 100.137154,73.0836 C100.720436,70.4534824 101.791827,68.1083395 103.328212,66.103079 C104.548257,64.5189277 106.098691,63.2460706 107.960935,62.2790622 C105.152387,61.2902723 102.870923,59.6734487 101.184071,57.4717008 C101.093429,57.3537176 101.009585,57.2298353 100.921662,57.1091294 C100.602601,57.6114655 100.252723,58.0911126 99.8729317,58.5476168 C98.1946914,60.5642218 95.9512969,61.9618689 93.2061978,62.7019866 C91.0724804,63.2764739 88.5091189,63.5560034 85.3688198,63.5560034 C82.2235354,63.5560034 79.6633464,63.2755664 77.5427721,62.6988101 C74.8189739,61.9577849 72.5878161,60.5610454 70.9113886,58.5467092 C70.52344,58.0802218 70.1672161,57.5883227 69.8418106,57.0737345 C69.7461831,57.2062387 69.6541813,57.3410118 69.5544749,57.4707933 C67.8517611,59.6925076 65.5394785,61.3193143 62.6810767,62.3058353 C60.2432547,63.1471462 57.4224694,63.5560034 54.0569244,63.5560034 C50.6900198,63.5560034 47.8687813,63.1471462 45.4323189,62.3058353 C42.8240895,61.4059866 40.6763226,59.9665916 39.0261813,58.0348437 C38.70984,60.7407429 36.4156859,62.8412975 33.6284382,62.8412975 L21.8449519,62.8412975 C18.8410694,62.8412975 16.4064198,60.4031294 16.4064198,57.3959193 L16.4064198,27.2648269 L9.97082349,27.2648269 C6.96694092,27.2648269 4.53229138,24.8271126 4.53229138,21.8194487 L4.53229138,12.0177681 C4.53229138,9.01055798 6.96694092,6.57238992 9.97082349,6.57238992 L45.5025666,6.57238992" id="Fill-3" fill="#FFFFFF"></path>
                    <path d="M186.797988,85.7650235 C186.797988,74.9886202 178.072769,66.2524185 167.309914,66.2524185 C156.547059,66.2524185 147.821841,74.9886202 147.821841,85.7650235 C147.821841,96.5414269 156.547059,105.277629 167.309914,105.277629 C178.072769,105.277629 186.797988,96.5414269 186.797988,85.7650235" id="Fill-5" fill="#FFFFFF"></path>
                    <path d="M235.064915,65.798637 L111.338309,65.798637 C109.461109,65.798637 107.939227,64.2748387 107.939227,62.3952756 C107.939227,60.5157126 109.461109,58.9919143 111.338309,58.9919143 L235.064915,58.9919143 C236.942568,58.9919143 238.463997,60.5157126 238.463997,62.3952756 C238.463997,64.2748387 236.942568,65.798637 235.064915,65.798637" id="Fill-7" fill="#00AEEF"></path>
                    <polygon id="Fill-9" fill="#FFFFFF" points="45.5025666 21.8194941 33.6284382 21.8194941 33.6284382 57.3959647 21.8449519 57.3959647 21.8449519 21.8194941 9.97082349 21.8194941 9.97082349 12.0178134 45.5025666 12.0178134"></polygon>
                    <path d="M50.2497706,37.5746521 L50.2497706,49.9628874 L54.1995046,49.9628874 C55.499767,49.9628874 56.4438055,49.8126857 57.031167,49.5104672 C57.617622,49.2087025 57.9113028,48.5180471 57.9113028,47.4375933 L57.9113028,35.049358 L53.9139817,35.049358 C52.6449908,35.049358 51.7168147,35.2004672 51.1303596,35.5022319 C50.542545,35.8044504 50.2497706,36.4951059 50.2497706,37.5746521 M40.0185321,42.5299462 C40.0185321,37.0981815 41.0337248,33.1362151 43.0641101,30.6422319 C45.0940422,28.1487025 48.7582532,26.9017109 54.0567431,26.9017109 C59.3547798,26.9017109 63.0189908,28.1487025 65.0493761,30.6422319 C67.0793083,33.1362151 68.0949541,37.0981815 68.0949541,42.5299462 C68.0949541,45.2304 67.8810385,47.5015765 67.4527541,49.3434756 C67.0244697,51.1862824 66.2866422,52.7904 65.2397248,54.1558286 C64.1928073,55.5221647 62.7488771,56.5227529 60.9092936,57.1575933 C59.0688037,57.7928874 56.7846202,58.1105345 54.0567431,58.1105345 C51.3279596,58.1105345 49.0437761,57.7928874 47.2041927,57.1575933 C45.364156,56.5227529 43.9206789,55.5221647 42.8737615,54.1558286 C41.826844,52.7904 41.0894697,51.1862824 40.6611853,49.3434756 C40.2324477,47.5015765 40.0185321,45.2304 40.0185321,42.5299462" id="Fill-11" fill="#FFFFFF"></path>
                    <path d="M82.1328026,27.6165076 L82.1328026,49.9629782 L85.5114906,49.9629782 C86.7170319,49.9629782 87.5414228,49.8127765 87.9860228,49.510558 C88.4301695,49.2087933 88.6522429,48.5181378 88.6522429,47.437684 L88.6522429,27.6165076 L98.1696741,27.6165076 L98.1696741,44.3406252 C98.1696741,47.041079 97.9951879,49.2169613 97.6462154,50.8682723 C97.2967897,52.520037 96.6468851,53.917684 95.695142,55.0612134 C94.7433989,56.2047429 93.4422301,56.9988605 91.7929952,57.4435664 C90.1433072,57.8878185 88.0018851,58.1106252 85.3687292,58.1106252 C82.73512,58.1106252 80.6018558,57.8878185 78.9684833,57.4435664 C77.3342044,56.9988605 76.0416466,56.2047429 75.0899035,55.0612134 C74.1381604,53.917684 73.4878026,52.520037 73.1388301,50.8682723 C72.7894044,49.2169613 72.6153714,47.041079 72.6153714,44.3406252 L72.6153714,27.6165076 L82.1328026,27.6165076 Z" id="Fill-13" fill="#FFFFFF"></path>
                    <path d="M123.86624,48.8670958 L124.580047,56.8718017 C122.58184,57.6972303 120.07513,58.1106252 117.061277,58.1106252 C114.04697,58.1106252 111.628183,57.7925244 109.804462,57.157684 C107.979834,56.5228437 106.544515,55.5222555 105.497598,54.1559193 C104.45068,52.7904908 103.720557,51.1859193 103.308588,49.3435664 C102.896166,47.5016672 102.689955,45.230037 102.689955,42.530037 C102.689955,39.8304908 102.896166,37.5511462 103.308588,35.6924571 C103.720557,33.8346756 104.45068,32.2223899 105.497598,30.8565076 C107.52753,28.220037 111.255643,26.9018017 116.681032,26.9018017 C117.886121,26.9018017 119.305577,27.0206924 120.939856,27.2589277 C122.573229,27.497163 123.786475,27.7916672 124.580047,28.1406252 L123.152886,35.4306252 C121.089869,34.9863731 119.203152,34.7635664 117.489561,34.7635664 C115.776423,34.7635664 114.586744,34.9228437 113.920524,35.240037 C113.254757,35.557684 112.921194,36.1929782 112.921194,37.1459193 L112.921194,49.6294487 C114.15846,49.8840202 115.411588,50.0106252 116.681032,50.0106252 C119.376732,50.0106252 121.772858,49.6294487 123.86624,48.8670958" id="Fill-15" fill="#FFFFFF"></path>
                    <polygon id="Fill-17" fill="#FFFFFF" points="146.470139 57.3959193 146.470139 46.8659193 139.332066 46.8659193 139.332066 57.3959193 129.814634 57.3959193 129.814634 27.6165076 139.332066 27.6165076 139.332066 38.1465076 146.470139 38.1465076 146.470139 27.6165076 155.98757 27.6165076 155.98757 57.3959193"></polygon>
                    <mask id="mask-2" fill="white">
                        <use xlink:href="#path-1"></use>
                    </mask>
                    <g id="Clip-20"></g>
                    <polygon id="Fill-19" fill="#FFFFFF" mask="url(#mask-2)" points="162.649727 51.7315462 172.167158 51.7315462 172.167158 27.6166891 162.649727 27.6166891"></polygon>
                    <path d="M162.649863,54.9078807 L162.649863,57.5053261 L162.649863,58.5717126 C162.649863,59.1756958 163.62336,59.6648723 164.824822,59.6648723 L169.992334,59.6648723 C171.193797,59.6648723 172.167294,59.1756958 172.167294,58.5717126 L172.167294,57.5053261 L172.167294,54.9078807 L162.649863,54.9078807 Z" id="Fill-21" fill="#FFFFFF" mask="url(#mask-2)"></path>
                    <path d="M196.293257,57.3959193 L189.012422,46.8182723 C188.75817,46.4688605 188.599547,45.7069613 188.53655,44.5312134 L188.346202,44.5312134 L188.346202,57.3959193 L178.82877,57.3959193 L178.82877,27.6165076 L187.775156,27.6165076 L195.055991,38.1941546 C195.309336,38.5440202 195.467959,39.3063731 195.531862,40.4812134 L195.722211,40.4812134 L195.722211,27.6165076 L205.239642,27.6165076 L205.239642,57.3959193 L196.293257,57.3959193 Z" id="Fill-22" fill="#FFFFFF" mask="url(#mask-2)"></path>
                    <path d="M227.129326,48.6289059 L227.129326,47.3424353 L224.702834,47.3424353 L224.702834,40.0524353 L236.170886,40.0524353 L236.170886,55.9665529 C232.395185,57.3959647 228.493491,58.1106706 224.464445,58.1106706 C219.039509,58.1106706 215.311396,56.7928891 213.281463,54.1559647 C212.234999,52.7905361 211.504423,51.1859647 211.092454,49.3436118 C210.680032,47.5017126 210.473821,45.2219143 210.473821,42.5060319 C210.473821,39.7901496 210.68819,37.5198807 211.116474,35.6925025 C211.544759,33.8664857 212.313858,32.2700824 213.424678,30.9042 C215.518513,28.2359647 219.563421,26.9018471 225.55895,26.9018471 C226.796669,26.9018471 228.406021,27.0289059 230.389273,27.2830235 C232.371164,27.537595 233.823252,27.8234773 234.743724,28.1406706 L233.315656,35.4306706 C230.74595,34.9864185 228.421884,34.7636118 226.344364,34.7636118 C224.266392,34.7636118 222.806599,34.9228891 221.965893,35.2400824 C221.125186,35.5577294 220.70506,36.1930235 220.70506,37.1459647 L220.70506,50.6300824 L223.846265,50.6300824 C224.987904,50.6300824 225.820906,50.5107378 226.344364,50.2729563 C226.867823,50.0342672 227.129326,49.4865529 227.129326,48.6289059" id="Fill-23" fill="#FFFFFF" mask="url(#mask-2)"></path>
                    <path d="M126.003946,87.4383429 L126.717753,95.4435025 C124.719546,96.2689311 122.212835,96.6823261 119.198982,96.6823261 C116.184676,96.6823261 113.765889,96.3642252 111.942168,95.7293849 C110.11754,95.0940908 108.682221,94.0935025 107.635303,92.7271664 C106.588386,91.3617378 105.858263,89.7576202 105.446294,87.9152672 C105.033872,86.0733681 104.827661,83.8017378 104.827661,81.101284 C104.827661,78.4017378 105.033872,76.1223933 105.446294,74.264158 C105.858263,72.4059227 106.588386,70.7940908 107.635303,69.4282084 C109.665235,66.7917378 113.393802,65.4730487 118.818738,65.4730487 C120.023826,65.4730487 121.443283,65.5923933 123.077562,65.8306286 C124.710934,66.0688639 125.92418,66.3629143 126.717753,66.7118723 L125.290591,74.0023261 C123.227575,73.5576202 121.340857,73.3348134 119.627267,73.3348134 C117.914129,73.3348134 116.72445,73.4940908 116.05823,73.811284 C115.392463,74.1293849 115.0589,74.7642252 115.0589,75.7171664 L115.0589,88.2006958 C116.296166,88.455721 117.549294,88.5823261 118.818738,88.5823261 C121.514437,88.5823261 123.910564,88.2006958 126.003946,87.4383429" id="Fill-24" fill="#FFFFFF" mask="url(#mask-2)"></path>
                    <polygon id="Fill-25" fill="#FFFFFF" mask="url(#mask-2)" points="150.035641 95.967121 131.000778 95.967121 131.000778 66.1877092 140.518209 66.1877092 140.518209 88.3440454 150.035641 88.3440454"></polygon>
                    <polygon id="Fill-26" fill="#FFFFFF" mask="url(#mask-2)" points="207.13846 73.8113748 200.238323 73.8113748 200.238323 95.9672571 190.720891 95.9672571 190.720891 73.8113748 183.820754 73.8113748 183.820754 66.1878454 207.13846 66.1878454"></polygon>
                    <polygon id="Fill-27" fill="#FFFFFF" mask="url(#mask-2)" points="227.363001 95.967121 227.363001 85.437121 220.224928 85.437121 220.224928 95.967121 210.707497 95.967121 210.707497 66.1877092 220.224928 66.1877092 220.224928 76.718163 227.363001 76.718163 227.363001 66.1877092 236.880433 66.1877092 236.880433 95.967121"></polygon>
                    <path d="M171.975223,85.5031008 C172.052269,85.9464454 172.109827,86.3888824 172.109827,86.8127143 C172.109827,90.4910672 169.878669,92.9564622 168.07081,93.7269832 C168.820874,93.6303277 169.628496,93.4184118 170.417083,92.9564622 C173.321713,91.3001597 175.014456,85.9464454 175.014456,85.9464454 C175.014456,85.9464454 173.687001,85.6188151 171.975223,85.5031008 M164.338617,92.7445462 C164.300548,92.7059748 164.262025,92.6674034 164.223502,92.6483445 C164.262025,92.686916 164.300548,92.7059748 164.338617,92.7445462 M166.647274,86.2541092 C168.109333,85.425958 170.24441,85.3488151 171.975223,85.484042 C171.186636,81.2856555 166.974493,76.7591849 166.974493,76.7591849 C166.974493,76.7591849 161.780694,82.2866975 161.780694,86.7936555 C161.780694,89.4319412 162.915535,91.4154202 164.223502,92.6288319 C164.088898,92.4940588 163.973783,92.3592857 163.915772,92.2435714 C163.2423,91.0691849 163.72361,87.9108655 166.647274,86.2541092 M167.309869,97.5705126 C160.547961,97.5705126 155.06592,92.0815714 155.06592,85.3111513 C155.06592,78.5407311 160.547961,73.0522437 167.309869,73.0522437 C174.071777,73.0522437 179.553817,78.5407311 179.553817,85.3111513 C179.553817,92.0815714 174.071777,97.5705126 167.309869,97.5705126 M167.269533,103.431555 C163.995083,103.431555 160.810823,102.54305 157.961032,100.821857 C153.823669,98.3210672 150.906803,94.3581933 149.745676,89.6597395 L151.574383,89.2064118 C152.614502,93.4152353 155.228623,96.9669832 158.934529,99.2059412 C161.99325,101.053739 165.480709,101.829706 169.0221,101.450798 L169.222872,103.326277 C168.568889,103.397067 167.917625,103.431555 167.269533,103.431555 M176.239939,69.5544958 L175.30995,71.1962773 C172.204548,69.4310672 168.693522,68.7490336 165.166181,69.2232353 L164.915102,67.3527479 C168.855772,66.8240924 172.772874,67.585084 176.239939,69.5544958 M189.910595,83.6820756 C189.061278,71.8733193 179.143661,62.6229832 167.331623,62.6229832 C166.785504,62.6229832 166.23032,62.6429496 165.683294,62.6824286 C159.646524,63.117605 154.14001,65.8802269 150.178946,70.4620588 C146.217882,75.0438908 144.274513,80.8963109 144.709142,86.9406807 C145.55846,98.7485294 155.476076,107.999773 167.288115,107.999773 C167.834234,107.999773 168.389417,107.979807 168.936443,107.939874 C174.973214,107.505151 180.479728,104.741622 184.440792,100.160244 C188.401856,95.5784118 190.345225,89.7268992 189.910595,83.6820756" id="Fill-28" fill="#000000" mask="url(#mask-2)"></path>
                </g>
                <g id="mb-logo" transform="translate(86.000000, 0.000000)" fill="#FFFFFF">
                    <path d="M7.35618659,16.6702 L5.28734512,16.6702 L5.28734512,12.0377 L5.28734512,11.6189632 C5.28734512,11.1402789 5.14069878,10.7980421 4.85597927,10.5761474 C4.5631378,10.3538053 4.24412561,10.2513579 3.88179634,10.2513579 C3.51991829,10.2513579 3.2009061,10.3623053 2.92521098,10.5761474 C2.64049146,10.7980421 2.50241829,11.1402789 2.50241829,11.6189632 L2.50241829,16.6702 L0.407857317,16.6702 L0.407857317,12.0377 C0.407857317,10.6870947 0.761162195,9.78967368 1.46822317,9.33648947 C2.17483293,8.88375263 2.95950366,8.63591053 3.82178415,8.59296316 C4.27841829,8.59296316 4.72693049,8.64441053 5.16641829,8.73835789 C5.60635732,8.84080526 6.00252805,9.03764737 6.36485732,9.33648947 C6.66672317,9.08014737 7.02002805,8.90075263 7.42522317,8.78980526 C7.83899146,8.67841053 8.26133293,8.61846316 8.70082073,8.59296316 C9.58024756,8.59296316 10.3906378,8.82380526 11.1234183,9.27698947 C11.864772,9.72972632 12.2356744,10.6530947 12.2356744,12.0377 L12.2356744,16.6702 L11.1838817,16.6702 C10.8820159,16.6702 10.6406134,16.5762526 10.4511012,16.3883579 C10.261589,16.2000158 10.1663817,15.9606737 10.1663817,15.6618316 L10.1663817,11.6274632 C10.1663817,11.1487789 10.0201866,10.8065421 9.73546707,10.5846474 C9.44262561,10.3623053 9.12361341,10.2598579 8.76128415,10.2598579 C8.3994061,10.2598579 8.0803939,10.3708053 7.78710122,10.5846474 C7.49425976,10.8065421 7.35618659,11.1487789 7.35618659,11.6274632 L7.35618659,12.0462 L7.35618659,16.6702 Z" id="Fill-30"></path>
                    <path d="M15.0632415,11.7726342 L18.114839,11.7726342 C18.0719732,11.2340026 17.9339,10.8407658 17.6924976,10.5844237 C17.4339488,10.3110816 17.0634976,10.1656868 16.5806927,10.1656868 C16.1407537,10.1656868 15.7788756,10.3025816 15.5027293,10.5844237 C15.2270341,10.8667132 15.0803878,11.25995 15.0632415,11.7726342 M18.6581073,14.0891079 L20.157961,14.0891079 C19.9427293,14.9180816 19.5203878,15.5506605 18.8995098,15.9863974 C18.2786317,16.4395816 17.5029854,16.6704237 16.5630951,16.6704237 C15.4251195,16.6704237 14.5375707,16.3026868 13.8995463,15.5761605 C13.261522,14.8581342 12.9425098,13.8412658 12.9425098,12.5161605 C12.9425098,11.2510026 13.2529488,10.2596342 13.8733756,9.54160789 C14.5114,8.80658158 15.3994,8.44779211 16.5373756,8.44779211 C17.7358146,8.44779211 18.6666805,8.80658158 19.3218512,9.51610789 C19.9598756,10.2511342 20.2788878,11.26845 20.2788878,12.5761079 L20.2788878,12.7810026 L20.2788878,12.9008974 C20.2788878,13.0033447 20.2703146,13.0717921 20.2445951,13.1057921 L15.0632415,13.1057921 C15.0803878,13.7213711 15.2356073,14.1745553 15.5113024,14.4733974 C15.7703024,14.7896868 16.1579,14.9520816 16.684022,14.9520816 C17.0201805,14.9520816 17.3134732,14.8836342 17.5548756,14.7471868 C17.6148878,14.7301868 17.666778,14.6957395 17.7186683,14.6447395 C17.7701073,14.5932921 17.8219976,14.5418447 17.882461,14.4823447 C17.8996073,14.4223974 17.9772171,14.34545 18.1062659,14.2425553 C18.2271927,14.1401079 18.4167049,14.0891079 18.6581073,14.0891079" id="Fill-32"></path>
                    <path d="M23.0547902,12.51625 C23.0547902,13.3112237 23.2014366,13.9093553 23.5028512,14.3280921 C23.8047171,14.7472763 24.2356317,14.9521711 24.7874732,14.9521711 C25.3307415,14.9521711 25.7445098,14.7472763 26.0463756,14.3280921 C26.3220707,13.9093553 26.4687171,13.3112237 26.4687171,12.51625 C26.4687171,11.8067237 26.3220707,11.2425921 26.0202049,10.8238553 C25.7011927,10.4306184 25.270278,10.2252763 24.7360341,10.2252763 C24.2184854,10.2252763 23.8047171,10.4306184 23.5118756,10.8493553 C23.2014366,11.2510921 23.0547902,11.8067237 23.0547902,12.51625 L23.0547902,12.51625 Z M26.4687171,4.35356579 L27.4857659,4.35356579 C27.7619122,4.35356579 28.0033146,4.45601316 28.2014,4.66135526 C28.3999366,4.86625 28.5032659,5.10559211 28.5032659,5.36238158 L28.5032659,13.0803816 C28.5032659,14.4819868 28.0894976,15.4393553 27.2705341,15.9350395 C26.4515707,16.4307237 25.5635707,16.6785658 24.6065341,16.6785658 C24.0894366,16.6785658 23.580461,16.5931184 23.0805098,16.4307237 C22.5805585,16.2598289 22.1839366,15.9864868 21.882522,15.61025 C21.304961,14.8752237 21.0116683,13.8753553 21.0116683,12.6101974 C21.0116683,11.3624868 21.304961,10.3621711 21.882522,9.61014474 C22.4858024,8.84111842 23.2528756,8.45638158 24.1841927,8.45638158 C24.6841439,8.45638158 25.1236317,8.55882895 25.5031073,8.75567105 C25.8997293,8.99456579 26.2187415,9.30235526 26.4601439,9.67859211 L26.4601439,4.35356579 L26.4687171,4.35356579 Z" id="Fill-34"></path>
                    <path d="M29.3479939,8.77253684 L30.4255061,8.77253684 C30.7016524,8.77253684 30.9430549,8.87498421 31.1411402,9.07182632 C31.3392256,9.26822105 31.4430061,9.50756316 31.4430061,9.78090526 L31.4430061,16.6703789 L29.3479939,16.6703789 L29.3479939,8.77253684 Z" id="Fill-36"></path>
                    <path d="M37.0722854,12.5418842 C36.7880171,12.6787789 36.3999683,12.8067263 35.9085902,12.9266211 L35.2186756,13.0720158 C34.8567976,13.1744632 34.5982488,13.3024105 34.4430293,13.4563053 C34.3049561,13.6786474 34.2359195,13.8924895 34.2359195,14.1058842 C34.2359195,14.4051737 34.3221024,14.6445158 34.5034927,14.8154105 C34.6844317,14.9693053 34.9429805,15.0547526 35.279139,15.0547526 C35.8395537,15.0547526 36.2790415,14.8923579 36.5980537,14.5760684 C36.9170659,14.2597789 37.0808585,13.8240421 37.0808585,13.2684105 L37.0808585,12.5418842 L37.0722854,12.5418842 Z M37.5550902,16.2000158 C37.1327488,16.4138579 36.693261,16.5503053 36.2190293,16.6017526 C35.7533707,16.6532 35.3396024,16.6787 34.9772732,16.6787 C34.2620902,16.6787 33.632639,16.4823053 33.0893707,16.0975684 C32.5465537,15.7128316 32.2789805,15.0717526 32.2789805,14.1828316 C32.2789805,13.3538579 32.5203829,12.7557263 33.011761,12.4049895 C33.503139,12.0462 34.1240171,11.8153579 34.8825171,11.6959105 C34.9858463,11.6959105 35.0982,11.6784632 35.2448463,11.6529632 C35.3824683,11.6189632 35.546261,11.6015158 35.7276512,11.5760158 C36.6066268,11.4565684 37.0465659,11.1997789 37.0465659,10.8069895 C37.0465659,10.5077 36.8913463,10.3198053 36.5809073,10.2254105 C36.2704683,10.1399632 35.9862,10.0889632 35.7276512,10.0889632 C35.4515049,10.0889632 35.2015293,10.1314632 34.9772732,10.2084105 C34.7534683,10.2853579 34.5982488,10.4392526 34.4949195,10.6526474 L32.4946634,10.6526474 C32.5722732,10.0375158 32.8569927,9.53333158 33.3307732,9.14009474 C33.8740415,8.68691053 34.6411146,8.45606842 35.6410171,8.45606842 C36.7618463,8.45606842 37.5984073,8.64441053 38.158822,9.0202 C38.7363829,9.41343684 39.0292244,9.96906842 39.0292244,10.6870947 L39.0292244,13.3793579 C39.0292244,14.1743316 38.882578,14.7899105 38.5983098,15.2341474 C38.2964439,15.6788316 37.9517122,16.0036211 37.5550902,16.2000158 L37.5550902,16.2000158 Z" id="Fill-38"></path>
                    <path d="M48.6414634,4.37065526 L49.7189756,4.37065526 C50.0036951,4.37065526 50.2365244,4.47310263 50.4346098,4.66994474 C50.6331463,4.86633947 50.7364756,5.10568158 50.7364756,5.37902368 L50.7364756,16.6786553 L48.6414634,16.6786553 L48.6414634,4.37065526 Z" id="Fill-40"></path>
                    <path d="M45.7707598,12.51625 C45.7707598,11.8067237 45.6241134,11.2510921 45.3226988,10.8493553 C45.0208329,10.4306184 44.6156378,10.2252763 44.0985402,10.2252763 C43.5381256,10.2252763 43.1067598,10.4221184 42.8139183,10.8238553 C42.5120524,11.2425921 42.3654061,11.8067237 42.3654061,12.51625 C42.3654061,13.3452237 42.5034793,13.9523026 42.7877476,14.3280921 C43.0896134,14.7472763 43.5033817,14.9521711 44.04665,14.9521711 C44.6070646,14.9521711 45.0379793,14.7472763 45.331272,14.3280921 C45.6241134,13.9093553 45.7707598,13.3112237 45.7707598,12.51625 M42.3568329,5.37938158 L42.3568329,9.67009211 C42.5725159,9.29385526 42.891528,8.98606579 43.3138695,8.74672368 C43.6757476,8.55032895 44.1156866,8.44788158 44.6327841,8.44788158 C45.5726744,8.44788158 46.3397476,8.83217105 46.943028,9.60164474 C47.5381866,10.3706711 47.8396012,11.3709868 47.8396012,12.6016974 C47.8396012,13.8324079 47.5381866,14.8327237 46.943028,15.60175 C46.6416134,15.9779868 46.2364183,16.2513289 45.7274427,16.4222237 C45.2189183,16.5931184 44.7103939,16.6700658 44.2190159,16.6700658 C43.2619793,16.6700658 42.3739793,16.4222237 41.5550159,15.9265395 C40.7360524,15.4308553 40.3308573,14.4819868 40.3308573,13.0718816 L40.3308573,4.37056579 L41.3483573,4.37056579 C41.6240524,4.37056579 41.8654549,4.47301316 42.0725646,4.66985526 C42.2535037,4.86625 42.3568329,5.09709211 42.3568329,5.37938158" id="Fill-42"></path>
                    <path d="M56.4606012,12.5418842 C56.1849061,12.6787789 55.7882841,12.8067263 55.2969061,12.9266211 L54.6069915,13.0720158 C54.2451134,13.1744632 53.9865646,13.3024105 53.8313451,13.4563053 C53.693272,13.6786474 53.6242354,13.8924895 53.6242354,14.1058842 C53.6242354,14.4051737 53.7104183,14.6445158 53.8913573,14.8154105 C54.0727476,14.9693053 54.3312963,15.0547526 54.6674549,15.0547526 C55.2278695,15.0547526 55.6673573,14.8923579 55.9863695,14.5760684 C56.3053817,14.2597789 56.4691744,13.8240421 56.4691744,13.2684105 L56.4691744,12.5418842 L56.4606012,12.5418842 Z M56.9434061,16.2000158 C56.5210646,16.4138579 56.0811256,16.5503053 55.6073451,16.6017526 C55.1416866,16.6532 54.7279183,16.6787 54.365589,16.6787 C53.6504061,16.6787 53.0209549,16.4823053 52.4776866,16.0975684 C51.9348695,15.7128316 51.6672963,15.0717526 51.6672963,14.1828316 C51.6672963,13.3538579 51.9086988,12.7557263 52.4000768,12.4049895 C52.8914549,12.0462 53.5123329,11.8153579 54.2708329,11.6959105 C54.3741622,11.6959105 54.495089,11.6784632 54.6331622,11.6529632 C54.7707841,11.6189632 54.9345768,11.6015158 55.1159671,11.5760158 C55.9949427,11.4565684 56.4348817,11.1997789 56.4348817,10.8069895 C56.4348817,10.5077 56.2796622,10.3198053 55.9692232,10.2254105 C55.6587841,10.1399632 55.3740646,10.0889632 55.1155159,10.0889632 C54.8312476,10.0889632 54.5898451,10.1314632 54.365589,10.2084105 C54.1417841,10.2853579 53.9865646,10.4392526 53.8827841,10.6526474 L51.8744061,10.6526474 C51.9520159,10.0375158 52.2362841,9.53333158 52.7105159,9.14009474 C53.2537841,8.68691053 54.0208573,8.45606842 55.0207598,8.45606842 C56.141589,8.45606842 56.9776988,8.64441053 57.5381134,9.0202 C58.1156744,9.41343684 58.4089671,9.96906842 58.4089671,10.6870947 L58.4089671,13.3793579 C58.4089671,14.1743316 58.2623207,14.7899105 57.9780524,15.2341474 C57.6847598,15.6788316 57.340028,16.0036211 56.9434061,16.2000158 L56.9434061,16.2000158 Z" id="Fill-44"></path>
                    <path d="M59.0123378,16.6702 L59.0123378,15.0977 L63.2971183,10.4052526 L60.2712402,10.4052526 C59.9950939,10.4052526 59.7536915,10.3108579 59.5556061,10.1229632 C59.3570695,9.93506842 59.2537402,9.70422632 59.2537402,9.42193684 L59.2537402,8.77235789 L65.779728,8.77235789 L65.779728,10.4647526 L61.555411,14.9523053 L65.9263744,14.9523053 L65.9263744,16.6702 L59.0123378,16.6702 Z" id="Fill-46"></path>
                    <path d="M68.5125841,11.7726342 L71.5641817,11.7726342 C71.5213159,11.2340026 71.3832427,10.8407658 71.1418402,10.5844237 C70.8832915,10.3110816 70.5128402,10.1656868 70.0300354,10.1656868 C69.5900963,10.1656868 69.2282183,10.3025816 68.9525232,10.5844237 C68.68495,10.8667132 68.5383037,11.25995 68.5125841,11.7726342 M72.10745,14.0891079 L73.6077549,14.0891079 C73.3834988,14.9180816 72.9697305,15.5506605 72.3488524,15.9863974 C71.7279744,16.4395816 70.952328,16.6704237 70.0124378,16.6704237 C68.8744622,16.6704237 67.9869134,16.3026868 67.348889,15.5761605 C66.7108646,14.8581342 66.3918524,13.8412658 66.3918524,12.5161605 C66.3918524,11.2510026 66.7022915,10.2596342 67.3227183,9.54160789 C67.9607427,8.80658158 68.8487427,8.44779211 69.9867183,8.44779211 C71.1851573,8.44779211 72.1160232,8.80658158 72.7711939,9.51610789 C73.4092183,10.2511342 73.7282305,11.26845 73.7282305,12.5761079 L73.7282305,12.7810026 L73.7282305,12.9008974 C73.7282305,13.0033447 73.7196573,13.0717921 73.6939378,13.1057921 L68.5125841,13.1057921 C68.5297305,13.7213711 68.68495,14.1745553 68.9606451,14.4733974 C69.2196451,14.7896868 69.6072427,14.9520816 70.1333646,14.9520816 C70.4695232,14.9520816 70.7628159,14.8836342 71.0042183,14.7471868 C71.0642305,14.7301868 71.1161207,14.6957395 71.168011,14.6447395 C71.21945,14.5932921 71.2713402,14.5418447 71.3318037,14.4823447 C71.34895,14.4223974 71.4265598,14.34545 71.5556085,14.2425553 C71.6851085,14.1401079 71.8660476,14.0891079 72.10745,14.0891079" id="Fill-48"></path>
                    <path d="M32.0032402,4.49887105 C32.658411,4.13113421 33.6154476,4.09713421 34.3910939,4.15708158 C34.037789,2.29379211 32.1498866,0.285107895 32.1498866,0.285107895 C32.1498866,0.285107895 29.8220451,2.73802895 29.8220451,4.73821316 C29.8220451,5.90897632 30.3305695,6.78939737 30.9171549,7.32802895 C30.8566915,7.26808158 30.8048012,7.20858158 30.7790817,7.15713421 C30.4772159,6.63550263 30.6928988,5.23389737 32.0032402,4.49887105" id="Fill-50"></path>
                    <path d="M30.9813087,7.39075 C30.9600057,7.36921667 30.9387027,7.34768333 30.916839,7.33635 C30.9387027,7.35845 30.9600057,7.36921667 30.9813087,7.39075" id="Fill-52"></path>
                    <path d="M34.3912293,4.16553684 C34.425522,4.36193158 34.4516927,4.55877368 34.4516927,4.74666842 C34.4516927,6.37911579 33.451339,7.47337895 32.6414,7.81516842 C32.9775585,7.77266842 33.3394366,7.67827368 33.6927415,7.47337895 C34.9945098,6.73835263 35.753461,4.36193158 35.753461,4.36193158 C35.753461,4.36193158 35.1583024,4.21698421 34.3912293,4.16553684" id="Fill-54"></path>
                </g>
            </g>
        </g>
    </g>
</svg>